<ttFont>
          <CharString index="0">
            -101 callgsubr
            208 -105 -101 callgsubr
            endchar
          </CharString>
          <CharString index="1">
            -103 callgsubr
            231 -82 callsubr
            -231 hlineto
            return
          </CharString>
          <CharString index="2">
            -103 callsubr
            325 -39 callsubr
            -325 hlineto
            return
          </CharString>
          <CharString index="3">
            hstem
            511 62 -106 callsubr
            return
          </CharString>
          <CharString index="4">
            hstem
            621 62 rmoveto
            -97 callgsubr
            293 hlineto
            -244 620 rmoveto
            return
          </CharString>
          <CharString index="5">
            -109 67 rlineto
            return
          </CharString>
          <CharString index="6">
            hstem
            223 -96 callgsubr
            -399 hlineto
            -73 -700 -69 callgsubr
            return
          </CharString>
          <CharString index="7">
            rmoveto
            80 hlineto
            157 128 rlineto
            -130 hlineto
            return
          </CharString>
          <CharString index="8">
            hstem
            588 -14 callgsubr
            -64 -605 -57 callgsubr
            64 605 -59 callsubr
            -67 -638 -102 callgsubr
            293 hlineto
            123 -2 callgsubr
            return
          </CharString>
          <CharString index="9">
            -94 callsubr
            -40 -376 -102 callgsubr
            return
          </CharString>
          <CharString index="10">
            87 rmoveto
            -298 hlineto
            13 129 rlineto
            298 hlineto
            24 222 -74 callgsubr
            return
          </CharString>
          <CharString index="11">
            hlineto
            -94 callsubr
            -61 -576 -102 callgsubr
            return
          </CharString>
          <CharString index="12">
            rmoveto
            115 138 7 callgsubr
            -89 -80 -72 80 7 callgsubr
            86 13 callgsubr
            endchar
          </CharString>
          <CharString index="13">
            -123 -67 return
          </CharString>
          <CharString index="14">
            -21 callgsubr
            -82 callgsubr
            return
          </CharString>
          <CharString index="15">
            rmoveto
            42 hlineto
            141 308 4 42 -67 callsubr
            return
          </CharString>
          <CharString index="16">
            rmoveto
            -24 -24 callgsubr
            123 67 24 219 -102 callsubr
            -113 hlineto
            109 -272 rmoveto
            -32 callsubr
            20 191 rlineto
            5 callsubr
            return
          </CharString>
          <CharString index="17">
            hstem
            551 438 rmoveto
            -102 callsubr
            -141 -77 callsubr
            231 -59 callgsubr
            return
          </CharString>
          <CharString index="18">
            -66 callsubr
            77 -47 rlineto
            121 hlineto
            -107 198 -62 callsubr
          </CharString>
          <CharString index="19">
            hlineto
            9 87 -33 callgsubr
            return
          </CharString>
          <CharString index="20">
            rmoveto
            221 -82 callsubr
            -221 hlineto
            return
          </CharString>
          <CharString index="21">
            hlineto
            -52 -500 -71 callgsubr
            return
          </CharString>
          <CharString index="22">
            87 143 87 hstem
            83 -21 callsubr
            92 -83 callgsubr
            return
          </CharString>
          <CharString index="23">
            90 hstem
            370 279 rmoveto
            129 -279 rlineto
            111 hlineto
            -132 279 -78 callsubr
            30 287 -102 callsubr
            -359 -45 callsubr
            29 279 rlineto
            35 331 rmoveto
            275 hlineto
            -26 -241 -24 callsubr
            return
          </CharString>
          <CharString index="24">
            rmoveto
            201 hlineto
            -12 -115 rlineto
            -201 hlineto
            return
          </CharString>
          <CharString index="25">
            hlineto
            -35 -336 rlineto
            return
          </CharString>
          <CharString index="26">
            -91 callgsubr
            29 274 -102 callsubr
            -249 hlineto
            22 212 rlineto
            265 hlineto
            -8 -80 -56 callgsubr
            11 103 return
          </CharString>
          <CharString index="27">
            -49 callsubr
            250 -20 hstem
            253 730 rmoveto
            -97 hlineto
            -76 -730 -71 callgsubr
            12 119 82 86 141 -205 4 callgsubr
            -195 274 217 226 rlineto
            -116 hlineto
            -232 -249 -58 callgsubr
            return
          </CharString>
          <CharString index="28">
            98 -53 callgsubr
            203 -20 -105 callsubr
            return
          </CharString>
          <CharString index="29">
            123 67 return
          </CharString>
          <CharString index="30">
            -54 callsubr
            -53 -505 -71 callgsubr
            43 418 rlineto
            return
          </CharString>
          <CharString index="31">
            -75 callsubr
            rlineto
            return
          </CharString>
          <CharString index="32">
            hlineto
            -94 callsubr
            -17 -163 return
          </CharString>
          <CharString index="33">
            -5 -67 callgsubr
            return
          </CharString>
          <CharString index="34">
            -21 413 -85 callsubr
            return
          </CharString>
          <CharString index="35">
            150 -67 callsubr
            return
          </CharString>
          <CharString index="36">
            -16 callgsubr
            228 -20 -99 callsubr
            return
          </CharString>
          <CharString index="37">
            756 -25 callgsubr
            -428 -96 callsubr
            428 hlineto
            -397 640 rmoveto
            500 hlineto
            -60 -570 rlineto
            -500 hlineto
            return
          </CharString>
          <CharString index="38">
            120 -88 callsubr
            15 return
          </CharString>
          <CharString index="39">
            hlineto
            73 700 -59 callsubr
            return
          </CharString>
          <CharString index="40">
            rlineto
            -150 hlineto
            return
          </CharString>
          <CharString index="41">
            rmoveto
            18 169 -77 47 rlineto
            -121 hlineto
            -87 -47 -18 -169 return
          </CharString>
          <CharString index="42">
            rmoveto
            34 hlineto
            112 246 4 34 -35 callsubr
          </CharString>
          <CharString index="43">
            13 callsubr
            166 90 444 -20 return
          </CharString>
          <CharString index="44">
            21 -27 callgsubr
            351 -77 callgsubr
            return
          </CharString>
          <CharString index="45">
            rmoveto
            135 hlineto
            -15 callgsubr
            -135 hlineto
            endchar
          </CharString>
          <CharString index="46">
            -40 callsubr
            78 -230 -65 callgsubr
          </CharString>
          <CharString index="47">
            0 90 225 -34 callgsubr
            return
          </CharString>
          <CharString index="48">
            rlineto
            -100 hlineto
            return
          </CharString>
          <CharString index="49">
            -52 0 87 129 87 115 87 return
          </CharString>
          <CharString index="50">
            rmoveto
            -43 callsubr
            16 -72 callsubr
            return
          </CharString>
          <CharString index="51">
            rlineto
            -97 hlineto
            return
          </CharString>
          <CharString index="52">
            -257 -179 -39 callgsubr
            78 -200 -92 callsubr
            endchar
          </CharString>
          <CharString index="53">
            -32 callgsubr
            -19 3 callgsubr
            return
          </CharString>
          <CharString index="54">
            -22 callsubr
            hlineto
            return
          </CharString>
          <CharString index="55">
            -17 callsubr
            33 222 rlineto
            -85 hlineto
            -13 -222 -18 callgsubr
            return
          </CharString>
          <CharString index="56">
            hstem
            100 hmoveto
            -84 callgsubr
            return
          </CharString>
          <CharString index="57">
            rmoveto
            -42 hlineto
            -140 -308 -5 -42 -6 callgsubr
            return
          </CharString>
          <CharString index="58">
            -21 500 -20 return
          </CharString>
          <CharString index="59">
            rmoveto
            241 -82 callsubr
            -241 hlineto
            endchar
          </CharString>
          <CharString index="60">
            21 -49 callsubr
            return
          </CharString>
          <CharString index="61">
            -66 41 rlineto
            -168 hlineto
            -94 callsubr
            -32 -301 -102 callgsubr
            223 -91 callgsubr
            return
          </CharString>
          <CharString index="62">
            hlineto
            -73 -700 -56 callgsubr
            return
          </CharString>
          <CharString index="63">
            -29 callsubr
            228 -60 callgsubr
            return
          </CharString>
          <CharString index="64">
            150 hlineto
            return
          </CharString>
          <CharString index="65">
            -47 callgsubr
            239 660 rmoveto
            133 hlineto
            7 70 rlineto
            return
          </CharString>
          <CharString index="66">
            rlineto
            -69 callsubr
            return
          </CharString>
          <CharString index="67">
            rmoveto
            107 hlineto
            11 107 rlineto
            -107 hlineto
            return
          </CharString>
          <CharString index="68">
            hlineto
            -56 -530 rlineto
            return
          </CharString>
          <CharString index="69">
            hlineto
            75 41 return
          </CharString>
          <CharString index="70">
            -132 82 rlineto
            -103 hlineto
            -94 callsubr
            rlineto
            return
          </CharString>
          <CharString index="71">
            -12 -6 callsubr
            195 -67 callgsubr
            return
          </CharString>
          <CharString index="72">
            -33 callgsubr
            endchar
          </CharString>
          <CharString index="73">
            87 326 87 return
          </CharString>
          <CharString index="74">
            228 -20 hstem
            return
          </CharString>
          <CharString index="75">
            -163 hlineto
            return
          </CharString>
          <CharString index="76">
            -37 callsubr
            hintmask 10100000
            -11 -102 rlineto
            87 hlineto
            return
          </CharString>
          <CharString index="77">
            401 -39 callgsubr
            return
          </CharString>
          <CharString index="78">
            -327 -63 callgsubr
            return
          </CharString>
          <CharString index="79">
            21 -21 418 87 return
          </CharString>
          <CharString index="80">
            0 -34 callsubr
            return
          </CharString>
          <CharString index="81">
            -102 callsubr
            -151 -32 callgsubr
            return
          </CharString>
          <CharString index="82">
            -5 90 232 90 208 90 hstem
            return
          </CharString>
          <CharString index="83">
            rlineto
            -275 hlineto
            return
          </CharString>
          <CharString index="84">
            -277 -6 callsubr
            930 -20 hstem
            98 -200 rmoveto
            90 hlineto
            return
          </CharString>
          <CharString index="85">
            rlineto
            -231 return
          </CharString>
          <CharString index="86">
            413 rmoveto
            return
          </CharString>
          <CharString index="87">
            108 -67 -71 callgsubr
            8 70 rlineto
            -133 hlineto
            endchar
          </CharString>
          <CharString index="88">
            0 87 123 87 116 87 return
          </CharString>
          <CharString index="89">
            rlineto
            89 hlineto
            -7 -65 rlineto
            -99 hlineto
            return
          </CharString>
          <CharString index="90">
            198 -10 9 85 -200 -10 return
          </CharString>
          <CharString index="91">
            213 -20 hstem
            return
          </CharString>
          <CharString index="92">
            rlineto
            80 hlineto
            return
          </CharString>
          <CharString index="93">
            205 rmoveto
            201 11 callgsubr
            -201 hlineto
            return
          </CharString>
          <CharString index="94">
            rmoveto
            -589 -720 rlineto
            90 hlineto
            589 720 rlineto
            return
          </CharString>
          <CharString index="95">
            rmoveto
            -255 hlineto
            27 255 rlineto
            255 hlineto
            endchar
          </CharString>
          <CharString index="96">
            rmoveto
            265 hlineto
            -27 -251 rlineto
            -265 hlineto
            endchar
          </CharString>
          <CharString index="97">
            413 rlineto
            return
          </CharString>
          <CharString index="98">
            101 -88 callsubr
            67 643 rlineto
            return
          </CharString>
          <CharString index="99">
            90 218 100 212 90 return
          </CharString>
          <CharString index="100">
            15 143 rlineto
            return
          </CharString>
          <CharString index="101">
            -179 -21 return
          </CharString>
          <CharString index="102">
            rmoveto
            130 hlineto
            14 130 rlineto
            -130 hlineto
            return
          </CharString>
          <CharString index="103">
            hlineto
            36 184 rlineto
            -83 hlineto
            -36 -184 rlineto
            return
          </CharString>
          <CharString index="104">
            -21 138 -20 hstem
            return
          </CharString>
          <CharString index="105">
            hlineto
            -7 callsubr
            return
          </CharString>
          <CharString index="106">
            hlineto
            -94 callsubr
            -12 -113 -56 callgsubr
            return
          </CharString>
          <CharString index="107">
            -102 callsubr
            -223 hlineto
            -10 -90 rlineto
            return
          </CharString>
          <CharString index="108">
            -47 callsubr
            hstem
            return
          </CharString>
          <CharString index="109">
            81 191 81 return
          </CharString>
          <CharString index="110">
            rmoveto
            325 hlineto
            return
          </CharString>
          <CharString index="111">
            hlineto
            -9 -90 rlineto
            return
          </CharString>
          <CharString index="112">
            163 hlineto
            return
          </CharString>
          <CharString index="113">
            7 callsubr
            endchar
          </CharString>
          <CharString index="114">
            rlineto
            -90 hlineto
            return
          </CharString>
          <CharString index="115">
            -221 1 -21 740 -20 hstem
            return
          </CharString>
          <CharString index="116">
            hstem
            50 291 rmoveto
            return
          </CharString>
          <CharString index="117">
            0 90 520 90 return
          </CharString>
          <CharString index="118">
            hlineto
            hintmask 10100000
            return
          </CharString>
          <CharString index="119">
            rlineto
            -32 callsubr
            return
          </CharString>
          <CharString index="120">
            57 21 -21 return
          </CharString>
        <CharString name=".notdef">
          -347 endchar
        </CharString>
        <CharString name="A">
          -64 callsubr
          -104 callgsubr
          endchar
        </CharString>
        <CharString name="AE">
          361 0 90 76 90 59 -34 callgsubr
          hstem
          652 -96 callgsubr
          -448 hlineto
          -563 -700 rlineto
          118 hlineto
          132 166 rlineto
          306 hlineto
          -17 -166 -69 callgsubr
          -48 511 rmoveto
          2 hlineto
          -37 -345 rlineto
          -243 hlineto
          endchar
        </CharString>
        <CharString name="Aacute">
          -81 callgsubr
          72 524 -100 callgsubr
        </CharString>
        <CharString name="Acircumflex">
          -64 callsubr
          238 -20 -104 callgsubr
          118 662 -105 callgsubr
        </CharString>
        <CharString name="Adieresis">
          -64 callsubr
          105 105 -104 callgsubr
          -3 529 -107 callsubr
        </CharString>
        <CharString name="Agrave">
          -81 callgsubr
          158 652 -95 callgsubr
        </CharString>
        <CharString name="Aring">
          -64 callsubr
          153 65 hstem
          546 682 -66 callsubr
          58 -35 -299 -647 -93 callgsubr
          -164 646 rlineto
          -86 -45 -76 callgsubr
          117 577 -62 callsubr
        </CharString>
        <CharString name="Atilde">
          -64 callsubr
          244 -20 -104 callgsubr
          84 601 -106 callgsubr
        </CharString>
        <CharString name="B">
          48 0 8 callgsubr
          608 -21 callsubr
          23 220 -102 callsubr
          -359 hlineto
          -73 -700 rlineto
          359 -91 callgsubr
          25 244 -82 50 1 2 rlineto
          -293 -46 rmoveto
          275 hlineto
          -24 -227 -24 callsubr
          55 520 rmoveto
          275 hlineto
          -22 -203 -24 callsubr
          endchar
        </CharString>
        <CharString name="C">
          58 -53 callgsubr
          hstem
          503 175 rmoveto
          -10 -90 rlineto
          -295 hlineto
          56 530 rlineto
          295 4 callsubr
          100 hlineto
          12 113 -102 callsubr
          -263 -96 callsubr
          263 -19 callgsubr
          endchar
        </CharString>
        <CharString name="Ccedilla">
          58 -199 50 65 169 -90 90 530 90 hstemhm
          hintmask 11010000
          503 175 rmoveto
          -10 -90 rlineto
          -295 hlineto
          56 530 rlineto
          295 4 callsubr
          100 hlineto
          12 113 -102 callsubr
          -263 hlineto
          -94 callsubr
          -61 -576 rlineto
          hintmask 10110000
          -102 callgsubr
          103 hlineto
          hintmask 11010000
          -53 -79 -46 callgsubr
          22 32 rlineto
          106 -19 callgsubr
          endchar
        </CharString>
        <CharString name="D">
          98 10 callsubr
          hstem
          622 67 rmoveto
          59 566 -102 callsubr
          -409 hlineto
          -73 -700 rlineto
          409 hlineto
          -245 610 -40 callgsubr
          endchar
        </CharString>
        <CharString name="E">
          -68 -60 callsubr
          -101 callsubr
          endchar
        </CharString>
        <CharString name="Eacute">
          -80 callgsubr
          88 690 -100 callgsubr
        </CharString>
        <CharString name="Ecircumflex">
          -68 -60 callsubr
          218 -20 -101 callsubr
          113 828 -105 callgsubr
        </CharString>
        <CharString name="Edieresis">
          -68 -60 callsubr
          85 105 -101 callsubr
          -7 695 -107 callsubr
        </CharString>
        <CharString name="Egrave">
          -80 callgsubr
          131 818 -95 callgsubr
        </CharString>
        <CharString name="Eth">
          98 0 90 201 74 245 90 9 callsubr
          70 hlineto
          -30 -291 rlineto
          409 -91 callgsubr
          59 566 -102 callsubr
          -409 hlineto
          -35 -335 rlineto
          -70 hlineto
          196 245 -40 callgsubr
          21 201 rlineto
          106 12 callgsubr
          -106 hlineto
          endchar
        </CharString>
        <CharString name="Euro">
          67 -5 90 154 74 74 74 154 90 hstem
          506 461 rmoveto
          -251 hlineto
          16 154 rlineto
          287 4 callsubr
          100 hlineto
          12 113 -102 callsubr
          -255 hlineto
          -94 callsubr
          -19 -177 9 callgsubr
          -8 -74 rlineto
          -77 hlineto
          -7 -74 rlineto
          77 hlineto
          -19 -177 -102 callgsubr
          255 -19 callgsubr
          -100 hlineto
          -10 -90 rlineto
          -287 hlineto
          17 154 rlineto
          123 hlineto
          50 74 rlineto
          -166 12 callgsubr
          208 hlineto
          endchar
        </CharString>
        <CharString name="F">
          -78 21 -21 315 -34 callgsubr
          hstem
          223 315 rmoveto
          249 -88 callgsubr
          -249 hlineto
          22 205 rlineto
          309 -88 callgsubr
          -409 -45 callsubr
          endchar
        </CharString>
        <CharString name="G">
          68 -5 90 175 90 265 90 hstem
          397 260 rmoveto
          115 hlineto
          -19 -175 rlineto
          -295 hlineto
          56 530 rlineto
          295 4 callsubr
          100 hlineto
          12 113 -102 callsubr
          -263 -96 callsubr
          263 -91 callgsubr
          30 288 rlineto
          -215 hlineto
          endchar
        </CharString>
        <CharString name="H">
          108 21 -21 315 90 295 -20 hstem
          223 315 rmoveto
          335 hlineto
          -33 -315 rlineto
          100 -68 callsubr
          -31 -295 rlineto
          -335 hlineto
          31 295 rlineto
          -100 -45 callsubr
          endchar
        </CharString>
        <CharString name="I">
          -327 21 -21 700 -60 callgsubr
          endchar
        </CharString>
        <CharString name="IJ">
          208 -5 90 -90 230 -204 -52 callgsubr
          hstemhm
          hintmask 00110000
          -68 callgsubr
          hintmask 10010000
          470 -615 rmoveto
          -225 hlineto
          hintmask 01010000
          -55 callgsubr
        </CharString>
        <CharString name="Iacute">
          -44 callsubr
          -36 80 -100 callgsubr
        </CharString>
        <CharString name="Icircumflex">
          -29 callsubr
          238 -60 callgsubr
          -2 218 -105 callgsubr
        </CharString>
        <CharString name="Idieresis">
          -29 callsubr
          105 105 hstem
          -68 callgsubr
          -123 85 -107 callsubr
        </CharString>
        <CharString name="Igrave">
          -44 callsubr
          33 208 -95 callgsubr
        </CharString>
        <CharString name="Itilde">
          -327 -93 200 73 196 endchar
        </CharString>
        <CharString name="J">
          -72 -5 90 615 -20 hstem
          353 85 rmoveto
          -225 hlineto
          -55 callgsubr
        </CharString>
        <CharString name="Jcircumflex">
          -72 130 200 74 195 endchar
        </CharString>
        <CharString name="K">
          56 -35 callgsubr
          90 hmoveto
          100 hlineto
          19 188 107 113 215 -301 rlineto
          122 hlineto
          -268 373 309 327 -33 callgsubr
          -348 -370 -58 callgsubr
          39 370 -59 callsubr
          endchar
        </CharString>
        <CharString name="L">
          -128 0 90 610 -38 callgsubr
          endchar
        </CharString>
        <CharString name="Ldotaccent">
          -128 0 90 142 120 348 -38 callgsubr
          145 -468 -12 callgsubr
        </CharString>
        <CharString name="Lslash">
          -128 0 90 610 -20 9 callsubr
          72 15 -32 -306 rlineto
          359 -88 callgsubr
          -259 hlineto
          25 238 108 23 8 74 -108 -23 31 298 -59 callsubr
          -34 -320 -71 -15 rlineto
          endchar
        </CharString>
        <CharString name="M">
          278 -35 callgsubr
          700 hmoveto
          95 hlineto
          73 700 rlineto
          -141 hlineto
          -272 -584 -58 callgsubr
          -149 584 rlineto
          -141 hlineto
          -73 -700 rlineto
          95 hlineto
          59 570 14 callgsubr
          146 -570 -56 callgsubr
          265 570 14 callgsubr
          endchar
        </CharString>
        <CharString name="N">
          128 21 -21 700 -66 callgsubr
          endchar
        </CharString>
        <CharString name="Nacute">
          128 125 200 78 194 endchar
        </CharString>
        <CharString name="Ntilde">
          128 -63 callgsubr
          244 -66 callgsubr
          156 857 -106 callgsubr
        </CharString>
        <CharString name="O">
          98 -53 callgsubr
          -105 callsubr
          endchar
        </CharString>
        <CharString name="OE">
          357 -60 callsubr
          hstem
          648 -96 callgsubr
          -708 hlineto
          -94 callsubr
          -59 -566 -102 callgsubr
          708 -88 callgsubr
          -299 hlineto
          -370 520 -40 callgsubr
          endchar
        </CharString>
        <CharString name="Oacute">
          -79 callsubr
          142 695 -100 callgsubr
        </CharString>
        <CharString name="Ocircumflex">
          98 -53 callgsubr
          213 -20 -105 callsubr
          175 833 -105 callgsubr
        </CharString>
        <CharString name="Odieresis">
          98 -53 callgsubr
          80 105 -105 callsubr
          60 700 -107 callsubr
        </CharString>
        <CharString name="Ograve">
          -79 callsubr
          202 823 -95 callgsubr
        </CharString>
        <CharString name="Oslash">
          98 -53 callgsubr
          -103 callsubr
          285 hlineto
          -334 -465 rlineto
          33 -65 rmoveto
          334 465 -49 -465 rlineto
          endchar
        </CharString>
        <CharString name="Otilde">
          98 -53 callgsubr
          219 -20 -105 callsubr
          142 772 -106 callgsubr
        </CharString>
        <CharString name="P">
          18 21 -21 269 90 251 90 hstem
          90 hmoveto
          100 hlineto
          28 269 rlineto
          249 -91 callgsubr
          31 297 -102 callsubr
          -349 hlineto
          91 -90 -11 callsubr
        </CharString>
        <CharString name="Q">
          98 -6 callsubr
          195 90 530 90 hstem
          254 615 rmoveto
          325 -39 callsubr
          -325 hlineto
          192 -90 rmoveto
          89 -195 rlineto
          111 hlineto
          -92 195 -78 callsubr
          -97 callgsubr
          endchar
        </CharString>
        <CharString name="R">
          48 21 -21 279 90 241 -84 callsubr
          endchar
        </CharString>
        <CharString name="Racute">
          48 30 200 82 194 endchar
        </CharString>
        <CharString name="Rcaron">
          48 62 200 82 207 endchar
        </CharString>
        <CharString name="Rcommaaccent">
          48 -314 -21 356 -21 279 90 0 241 0 -84 callsubr
          8 -704 -65 callsubr
        </CharString>
        <CharString name="S">
          38 -5 -8 callsubr
          hstem
          128 370 rmoveto
          -102 callgsubr
          249 hlineto
          -23 -218 -24 callsubr
          9 80 -59 callsubr
          -11 -103 -102 callgsubr
          243 -81 callsubr
          -102 callsubr
          -233 hlineto
          -94 callsubr
          rlineto
          endchar
        </CharString>
        <CharString name="Scaron">
          38 -5 -8 callsubr
          -16 callsubr
          128 370 rmoveto
          -102 callgsubr
          249 hlineto
          -23 -218 -24 callsubr
          9 80 -59 callsubr
          -11 -103 -102 callgsubr
          243 -81 callsubr
          -102 callsubr
          -233 hlineto
          -94 callsubr
          rlineto
          285 142 -95 callsubr
        </CharString>
        <CharString name="T">
          -49 21 -21 610 90 hstem
          393 610 rmoveto
          199 -88 callgsubr
          -498 4 callsubr
          199 hlineto
          -64 -610 -56 callgsubr
          endchar
        </CharString>
        <CharString name="Thorn">
          28 21 -21 156 90 251 90 -90 233 hstemhm
          hintmask 11100000
          90 hmoveto
          100 hlineto
          16 156 rlineto
          249 -91 callgsubr
          31 297 -102 callsubr
          -249 hlineto
          hintmask 11010000
          -7 callsubr
          -100 hlineto
          76 -233 -11 callsubr
        </CharString>
        <CharString name="U">
          -16 callgsubr
          -99 callsubr
          endchar
        </CharString>
        <CharString name="Uacute">
          -71 callsubr
          -331 80 -100 callgsubr
        </CharString>
        <CharString name="Ucircumflex">
          -16 callgsubr
          238 -20 -99 callsubr
          -315 218 -105 callgsubr
        </CharString>
        <CharString name="Udieresis">
          -16 callgsubr
          105 105 -99 callsubr
          -436 85 -107 callsubr
        </CharString>
        <CharString name="Ugrave">
          -71 callsubr
          -308 208 -95 callgsubr
        </CharString>
        <CharString name="V">
          57 -35 callgsubr
          717 -14 callgsubr
          -101 hlineto
          -273 -597 -58 callgsubr
          -147 597 rlineto
          -101 hlineto
          177 -700 rlineto
          124 hlineto
          endchar
        </CharString>
        <CharString name="W">
          349 -35 callgsubr
          999 -14 callgsubr
          -97 hlineto
          -203 -572 -58 callgsubr
          -90 572 -44 callgsubr
          -211 -572 -58 callgsubr
          -82 572 -56 callsubr
          107 -700 4 callgsubr
          206 561 14 callgsubr
          90 -561 4 callgsubr
          endchar
        </CharString>
        <CharString name="X">
          44 -35 callgsubr
          30 hmoveto
          112 hlineto
          211 275 156 -275 rlineto
          112 hlineto
          -204 357 267 343 -44 callgsubr
          -201 -260 -146 260 -44 callgsubr
          194 -343 rlineto
          endchar
        </CharString>
        <CharString name="Y">
          4 21 -21 700 -20 -89 callgsubr
          endchar
        </CharString>
        <CharString name="Yacute">
          4 -63 callgsubr
          228 -20 -89 callgsubr
          30 471 -100 callgsubr
        </CharString>
        <CharString name="Ydieresis">
          4 -63 callgsubr
          105 105 -89 callgsubr
          -82 476 -107 callsubr
        </CharString>
        <CharString name="Z">
          -22 10 callsubr
          -64 callgsubr
          endchar
        </CharString>
        <CharString name="Zcaron">
          -22 10 callsubr
          218 -20 -64 callgsubr
          263 80 -95 callsubr
        </CharString>
        <CharString name="a">
          -32 -74 callsubr
          -107 callgsubr
          endchar
        </CharString>
        <CharString name="a.alt">
          -72 -5 87 123 87 121 87 hstem
          178 -14 callsubr
          10 -87 rmoveto
          111 -70 callgsubr
          46 438 -102 callsubr
          -229 -7 callgsubr
          248 hlineto
          -13 -121 rlineto
          -182 -76 callsubr
          endchar
        </CharString>
        <CharString name="aacute">
          -85 callgsubr
          -227 595 -100 callgsubr
        </CharString>
        <CharString name="acircumflex">
          -32 -74 callsubr
          223 -20 -107 callgsubr
          -188 733 -105 callgsubr
        </CharString>
        <CharString name="acute">
          -107 611 -3 callgsubr
          247 590 -100 callgsubr
        </CharString>
        <CharString name="acute.cap">
          -107 811 -3 callgsubr
          247 790 -100 callgsubr
        </CharString>
        <CharString name="adieresis">
          -32 -74 callsubr
          90 105 -107 callgsubr
          -302 600 -107 callsubr
        </CharString>
        <CharString name="ae">
          226 0 87 -71 -21 221 87 110 87 5 -20 hstemhm
          hintmask 10101000
          762 -97 callsubr
          -77 -42 rlineto
          hintmask 01110000
          -59 37 rlineto
          -229 -7 callgsubr
          248 hlineto
          -13 -121 rlineto
          -182 -75 callsubr
          -102 callgsubr
          111 hlineto
          103 57 rlineto
          hintmask 10110000
          85 -52 rlineto
          279 hlineto
          -575 -14 callsubr
          333 -22 callgsubr
        </CharString>
        <CharString name="agrave">
          -85 callgsubr
          -134 723 -95 callgsubr
        </CharString>
        <CharString name="ampersand">
          48 -25 callsubr
          667 407 rmoveto
          -58 hlineto
          -94 callsubr
          -27 -255 rlineto
          -261 hlineto
          25 232 rlineto
          175 -88 callgsubr
          -175 hlineto
          22 208 rlineto
          221 4 callsubr
          100 hlineto
          12 113 -102 callsubr
          -189 hlineto
          -94 callsubr
          -24 -225 82 -50 -1 -2 -92 -50 -26 -249 -102 callgsubr
          229 -91 callgsubr
          27 255 rlineto
          74 hlineto
          endchar
        </CharString>
        <CharString name="apple">
          251 -2 -21 834 -20 hstem
          436 588 rmoveto
          -11 -23 5 10 -35 hvcurveto
          10 -35 -29 5 -24 hhcurveto
          -57 -48 -24 -48 -38 hvcurveto
          -37 -48 -19 -62 -77 vvcurveto
          -83 25 -84 49 -85 vhcurveto
          -87 49 50 -43 51 hhcurveto
          17 22 6 11 27 hvcurveto
          11 27 24 6 21 hhcurveto
          21 25 -5 -11 29 hvcurveto
          -11 30 23 -5 17 hhcurveto
          43 43 33 65 43 hvcurveto
          29 43 20 42 13 40 -30 9 -27 21 -23 33 rrcurveto
          -23 33 -11 38 41 vvcurveto
          38 11 34 22 31 vhcurveto
          12 17 19 20 26 23 -17 21 -18 16 -17 13 rrcurveto
          21 -31 -36 11 -40 hhcurveto
          -25 -29 -6 -11 -33 hvcurveto
          -11 -33 -24 -6 -15 hhcurveto
          153 202 rmoveto
          5 0 7 -3 9 vhcurveto
          -116 -27 -47 -77 -1 -99 23 2 18 3 11 3 18 6 18 12 18 18 rrcurveto
          43 43 18 52 43 vvcurveto
          endchar
        </CharString>
        <CharString name="approxequal">
          115 51 87 -5 87 69 87 -5 87 hstemhm
          hintmask 10010000
          310 371 rmoveto
          hintmask 10100000
          133 -82 rlineto
          103 10 callgsubr
          hintmask 10010000
          -9 callgsubr
          hintmask 10010000
          -31 callsubr
          hintmask 01010000
          8 82 rlineto
          70 -238 rmoveto
          hintmask 10100000
          133 -82 rlineto
          103 10 callgsubr
          hintmask 01100000
          -9 callgsubr
          hintmask 01100000
          -31 callsubr
          hintmask 01100000
          8 82 rlineto
          endchar
        </CharString>
        <CharString name="aring">
          -32 -74 callsubr
          65 65 133 65 -107 callgsubr
          -6 622 -89 callsubr
        </CharString>
        <CharString name="asciicircum">
          -5 401 -21 320 -20 hstem
          196 380 rmoveto
          169 233 rlineto
          1 hlineto
          118 -233 rlineto
          107 hlineto
          -166 320 rlineto
          -102 hlineto
          -234 -320 rlineto
          endchar
        </CharString>
        <CharString name="asciitilde">
          75 188 87 -5 87 hstemhm
          hintmask 01000000
          280 270 rmoveto
          hintmask 10000000
          132 -82 rlineto
          103 10 callgsubr
          hintmask 01000000
          11 102 rlineto
          -87 hlineto
          hintmask 10000000
          -9 -82 rlineto
          -95 hlineto
          hintmask 01000000
          -37 callsubr
          hintmask 10000000
          -11 -102 rlineto
          87 hlineto
          hintmask 01000000
          9 82 rlineto
          endchar
        </CharString>
        <CharString name="asterisk">
          23 285 -21 446 -20 hstem
          336 524 rmoveto
          -166 67 -37 -83 174 -48 -131 -143 65 -53 117 154 85 -154 77 53 -101 143 184 48 -19 83 -180 -67 29 186 rlineto
          -88 hlineto
          endchar
        </CharString>
        <CharString name="at">
          403 -141 80 98 -34 callsubr
          88 80 hstem
          789 -141 rmoveto
          8 80 rlineto
          -624 hlineto
          72 686 rlineto
          650 hlineto
          -53 -508 rlineto
          -160 hlineto
          88 420 rlineto
          -26 hlineto
          -80 -41 -62 41 rlineto
          -101 hlineto
          -130 -67 -78 -366 102 -67 rlineto
          101 hlineto
          81 41 61 -41 rlineto
          169 -91 callgsubr
          57 534 -102 callsubr
          -598 hlineto
          -94 callsubr
          -75 -712 -102 callgsubr
          273 591 rmoveto
          191 hlineto
          -69 -326 rlineto
          -191 hlineto
          endchar
        </CharString>
        <CharString name="atilde">
          -32 -74 callsubr
          229 -20 -107 callgsubr
          -224 672 -106 callgsubr
        </CharString>
        <CharString name="b">
          -12 -74 callsubr
          225 -20 hstem
          301 505 rmoveto
          -76 -41 28 266 -56 callsubr
          -77 -735 rlineto
          26 -38 callsubr
          67 -41 rlineto
          151 -91 callgsubr
          40 376 -102 callsubr
          -232 -87 -48 callsubr
        </CharString>
        <CharString name="backslash">
          8 callsubr
          195 720 rmoveto
          -90 hlineto
          158 -740 rlineto
          90 hlineto
          endchar
        </CharString>
        <CharString name="bar">
          -23 callsubr
          98 930 6 callsubr
        </CharString>
        <CharString name="braceleft">
          -20 callgsubr
          228 225 rmoveto
          -63 39 rlineto
          2 vlineto
          72 39 37 355 rlineto
          133 hlineto
          7 70 -56 callsubr
          -94 callsubr
          -38 -363 rlineto
          -85 hlineto
          -7 -70 rlineto
          85 hlineto
          -38 -363 -20 callsubr
        </CharString>
        <CharString name="braceright">
          -20 callgsubr
          179 -130 rmoveto
          -133 hlineto
          -8 -70 -71 callgsubr
          124 67 38 363 rlineto
          85 hlineto
          7 70 rlineto
          -85 hlineto
          38 363 -102 callsubr
          -97 hlineto
          -7 -70 rlineto
          133 hlineto
          -37 -355 62 -39 rlineto
          -2 vlineto
          -71 -39 rlineto
          endchar
        </CharString>
        <CharString name="bracketleft">
          -42 callsubr
          -213 hlineto
          -98 -930 rlineto
          213 hlineto
          8 70 rlineto
          -133 hlineto
          endchar
        </CharString>
        <CharString name="bracketright">
          -42 callgsubr
          213 hlineto
          98 930 rlineto
          -213 hlineto
          -7 -70 rlineto
          133 hlineto
          endchar
        </CharString>
        <CharString name="breve">
          -78 580 65 -65 156 hstemhm
          hintmask 01000000
          409 736 rmoveto
          hintmask 10000000
          -10 -91 rlineto
          -135 hlineto
          hintmask 01000000
          10 91 7 callgsubr
          -12 -109 77 -47 rlineto
          121 hlineto
          87 47 12 109 rlineto
          endchar
        </CharString>
        <CharString name="brokenbar">
          -23 callsubr
          43 402 7 callsubr
          13 126 rmoveto
          90 hlineto
          42 402 6 callsubr
        </CharString>
        <CharString name="bullet">
          -27 178 -21 380 -20 hstem
          503 224 rmoveto
          26 246 -102 callsubr
          -148 hlineto
          -94 callsubr
          -26 -246 -102 callgsubr
          148 hlineto
          endchar
        </CharString>
        <CharString name="c">
          -92 -27 callsubr
          5 callgsubr
          -21 callsubr
          278 -92 callgsubr
          -259 -45 callgsubr
        </CharString>
        <CharString name="caron">
          -76 611 -3 callsubr
          382 590 -95 callsubr
        </CharString>
        <CharString name="caron.cap">
          -76 811 -3 callsubr
          382 790 -95 callsubr
        </CharString>
        <CharString name="ccedilla">
          -92 -199 50 65 171 -87 -34 callsubr
          hstemhm
          hintmask 10110000
          269 hmoveto
          hintmask 11010000
          -57 -84 -46 callgsubr
          26 37 rlineto
          132 -30 callgsubr
          -259 hlineto
          -94 callsubr
          -38 -366 -102 callgsubr
          endchar
        </CharString>
        <CharString name="cedilla">
          -29 -199 50 0 65 84 -20 hstemhm
          hintmask 01100000
          269 hmoveto
          -57 -84 -18 callsubr
          hintmask 10100000
          -41 callgsubr
          26 37 rlineto
          endchar
        </CharString>
        <CharString name="cent">
          -92 -118 205 -87 -34 callsubr
          -87 205 hstemhm
          hintmask 10100000
          415 -21 callgsubr
          hintmask 10010000
          12 118 rlineto
          -96 hlineto
          hintmask 01100000
          -12 -118 rlineto
          -71 hlineto
          -94 callsubr
          -38 -366 -102 callgsubr
          71 11 callsubr
          -13 -118 rlineto
          96 hlineto
          hintmask 01100000
          13 118 rlineto
          92 -30 callgsubr
          endchar
        </CharString>
        <CharString name="circumflex">
          -76 611 -3 callsubr
          286 728 -105 callgsubr
        </CharString>
        <CharString name="circumflex.cap">
          -76 811 -3 callsubr
          286 928 -105 callgsubr
        </CharString>
        <CharString name="colon">
          -257 0 150 200 -23 callgsubr
          21 200 -57 callsubr
          endchar
        </CharString>
        <CharString name="comma">
          -55 callsubr
        </CharString>
        <CharString name="commaaccent">
          -107 -314 -21 280 -20 hstem
          64 -335 -65 callsubr
        </CharString>
        <CharString name="copyright">
          233 -5 70 70 63 251 116 -63 63 70 70 hstemhm
          hintmask 11011000
          -70 callsubr
          367 186 rmoveto
          -6 -53 rlineto
          -195 hlineto
          32 304 rlineto
          195 hlineto
          hintmask 11101000
          -5 -53 rlineto
          69 hlineto
          7 74 -68 42 rlineto
          -186 hlineto
          -79 -42 -36 -346 70 -42 rlineto
          186 hlineto
          77 42 8 74 rlineto
          endchar
        </CharString>
        <CharString name="ct">
          282 -27 callsubr
          140 -20 5 callgsubr
          -21 callsubr
          415 hlineto
          -36 -346 -102 callgsubr
          101 -88 callsubr
          34 326 -41 callsubr
          140 -103 -56 -9 -84 rlineto
          -396 -45 callgsubr
        </CharString>
        <CharString name="d">
          -12 -74 callsubr
          225 -20 hstem
          249 505 rmoveto
          -98 callsubr
          151 -38 callsubr
          20 -41 rlineto
          73 hlineto
          77 735 -56 callsubr
          -28 -266 -66 41 rlineto
          26 -423 -10 callgsubr
        </CharString>
        <CharString name="dagger">
          -24 -6 callsubr
          639 75 217 -20 hstem
          370 444 rmoveto
          -52 callsubr
          -78 -644 rlineto
          85 hlineto
          endchar
        </CharString>
        <CharString name="daggerdbl">
          -24 -6 callsubr
          217 75 347 75 217 -20 hstem
          358 266 rmoveto
          12 178 -52 callsubr
          -26 -178 -11 -179 -18 callgsubr
          -34 -222 rlineto
          85 hlineto
          14 222 -17 callsubr
          rlineto
          endchar
        </CharString>
        <CharString name="degree">
          -102 357 -75 callgsubr
          endchar
        </CharString>
        <CharString name="dieresis">
          -63 595 105 hstem
          172 595 -107 callsubr
        </CharString>
        <CharString name="dieresis.cap">
          -63 795 105 hstem
          172 795 -107 callsubr
        </CharString>
        <CharString name="divide">
          -7 -10 130 83 94 83 130 hstem
          cntrmask 11100000
          581 297 -54 callgsubr
          -338 -213 -5 callsubr
          27 260 -5 callsubr
          endchar
        </CharString>
        <CharString name="dollar">
          38 -123 208 -90 -8 callsubr
          -90 208 hstemhm
          hintmask 10101000
          263 -123 rmoveto
          100 hlineto
          hintmask 01101000
          12 118 rlineto
          63 -81 callsubr
          rlineto
          hintmask 10110000
          -102 callsubr
          -63 hlineto
          hintmask 10101000
          12 118 -59 callsubr
          hintmask 10110000
          -12 -118 rlineto
          -70 hlineto
          -94 callsubr
          -29 -268 -102 callgsubr
          249 hlineto
          -23 -218 -24 callsubr
          9 80 -59 callsubr
          -11 -103 rlineto
          hintmask 01101000
          109 -67 -51 callgsubr
        </CharString>
        <CharString name="dotaccent">
          -257 591 150 hstem
          162 591 rmoveto
          -84 callgsubr
          endchar
        </CharString>
        <CharString name="dotlessi">
          21 -21 500 -20 -94 callgsubr
          endchar
        </CharString>
        <CharString name="dotlessj">
          2 callgsubr
          hstem
          229 500 -65 callgsubr
        </CharString>
        <CharString name="e">
          -58 callsubr
          hstem
          484 -97 callsubr
          -94 callsubr
          -39 -371 -102 callgsubr
          279 hlineto
          -255 418 -11 callgsubr
        </CharString>
        <CharString name="eacute">
          -87 callgsubr
          39 287 -100 callgsubr
        </CharString>
        <CharString name="ecircumflex">
          -58 callsubr
          223 -20 hstem
          484 -97 callsubr
          -94 callsubr
          -39 -371 -102 callgsubr
          279 hlineto
          -255 418 -83 callsubr
          95 425 -105 callgsubr
        </CharString>
        <CharString name="edieresis">
          -58 callsubr
          90 105 hstem
          484 -97 callsubr
          -94 callsubr
          -39 -371 -102 callgsubr
          279 hlineto
          -255 418 -83 callsubr
          -33 292 -107 callsubr
        </CharString>
        <CharString name="egrave">
          -87 callgsubr
          152 415 -95 callgsubr
        </CharString>
        <CharString name="eight">
          38 -25 callsubr
          198 85 rmoveto
          25 232 rlineto
          265 hlineto
          -25 -232 -22 callsubr
          322 rmoveto
          22 208 rlineto
          265 hlineto
          -22 -208 rlineto
          -59 -412 rmoveto
          -78 callsubr
          26 249 -82 50 1 2 92 50 24 225 -102 callsubr
          -233 hlineto
          -94 callsubr
          -24 -225 82 -50 -1 -2 -92 -50 -26 -249 93 -67 rlineto
          endchar
        </CharString>
        <CharString name="ellipsis">
          363 0 -23 callgsubr
          295 -150 rmoveto
          -84 callgsubr
          295 -150 rmoveto
          -84 callgsubr
          endchar
        </CharString>
        <CharString name="emdash">
          367 -17 callgsubr
          834 hlineto
          10 87 rlineto
          -834 hlineto
          endchar
        </CharString>
        <CharString name="endash">
          89 -17 callgsubr
          556 hlineto
          10 87 rlineto
          -556 hlineto
          endchar
        </CharString>
        <CharString name="equal">
          73 89 94 134 94 hstem
          609 183 -54 callgsubr
          34 322 -54 callgsubr
          endchar
        </CharString>
        <CharString name="eth">
          28 -5 90 255 90 57 74 54 90 hstem
          391 487 rmoveto
          106 hlineto
          -11 -98 -46 callsubr
          45 425 rlineto
          70 hlineto
          7 74 rlineto
          -70 hlineto
          9 77 0 callsubr
          239 hlineto
          -6 -54 rlineto
          -106 hlineto
          56 -476 -12 callsubr
        </CharString>
        <CharString name="exclam">
          -257 0 150 580 -20 -51 callsubr
          48 118 rmoveto
          80 hlineto
          74 462 rlineto
          -132 hlineto
          endchar
        </CharString>
        <CharString name="exclamdown">
          -257 -209 -21 580 -37 callgsubr
          -68 -730 rmoveto
          132 hlineto
          23 462 rlineto
          -80 hlineto
          endchar
        </CharString>
        <CharString name="f">
          -218 21 -73 callsubr
          -50 callgsubr
          120 -92 callgsubr
          -101 -62 callgsubr
          endchar
        </CharString>
        <CharString name="ffi">
          428 21 -21 413 -1 callgsubr
          272 -83 callgsubr
          160 -92 callgsubr
          -160 -2 callsubr
          362 -92 callgsubr
          -343 -76 callsubr
          -272 -2 callsubr
          160 -92 callgsubr
          -141 -62 callgsubr
          -9 -87 rlineto
          92 hlineto
          -43 -413 -71 callgsubr
          778 -93 callsubr
          endchar
        </CharString>
        <CharString name="ffl">
          488 0 87 326 -85 callsubr
          292 -83 callgsubr
          150 hlineto
          9 87 rlineto
          -150 -2 callsubr
          240 hlineto
          -60 -576 -102 callgsubr
          -9 callsubr
          -318 -76 callsubr
          -292 -2 callsubr
          190 -92 callgsubr
          -171 -62 callgsubr
          endchar
        </CharString>
        <CharString name="fi">
          29 21 -73 callsubr
          140 -92 callgsubr
          -140 -2 callsubr
          332 -92 callgsubr
          -313 -62 callgsubr
          516 hmoveto
          -82 callgsubr
          endchar
        </CharString>
        <CharString name="five">
          38 -5 90 256 90 179 90 hstem
          274 610 rmoveto
          335 -88 callgsubr
          -435 hlineto
          -38 -359 rlineto
          345 hlineto
          -27 -256 rlineto
          -265 hlineto
          10 90 -59 callsubr
          -12 -113 -102 callgsubr
          233 -91 callgsubr
          32 302 -102 callsubr
          -229 hlineto
          endchar
        </CharString>
        <CharString name="fj">
          29 -200 87 134 -73 callsubr
          -50 callgsubr
          332 -92 callgsubr
          -313 -62 callgsubr
          516 hmoveto
          -97 hlineto
          -64 -613 -33 callgsubr
          -10 -87 rlineto
          101 hlineto
          124 67 rlineto
          endchar
        </CharString>
        <CharString name="fl">
          99 -27 callsubr
          143 87 hstem
          585 hmoveto
          -9 callsubr
          -318 -62 callgsubr
          -9 -87 rlineto
          92 -83 callgsubr
          150 hlineto
          9 87 rlineto
          -150 -2 callsubr
          240 hlineto
          -60 -576 rlineto
          endchar
        </CharString>
        <CharString name="florin">
          -218 -200 87 526 -1 callgsubr
          -50 callgsubr
          120 -92 callgsubr
          -101 -62 callgsubr
          -9 -87 rlineto
          92 hlineto
          -55 -526 rlineto
          -120 hlineto
          -9 -49 callgsubr
        </CharString>
        <CharString name="four">
          17 0 249 -87 87 451 -20 hstemhm
          hintmask 01100000
          501 162 rmoveto
          90 -92 callgsubr
          -90 hlineto
          47 451 rlineto
          -92 hlineto
          -399 -452 -9 -86 rlineto
          346 11 callsubr
          -17 -162 rlineto
          98 hlineto
          hintmask 01100000
          -314 249 rmoveto
          2 vlineto
          272 306 14 callgsubr
          -32 -308 rlineto
          endchar
        </CharString>
        <CharString name="fraction">
          56 11 -21 720 -20 hstem
          637 710 rmoveto
          -629 -720 rlineto
          90 hlineto
          629 720 rlineto
          endchar
        </CharString>
        <CharString name="g">
          -22 -200 87 124 87 320 87 hstem
          532 505 rmoveto
          -76 -41 -66 41 rlineto
          -141 hlineto
          -94 callsubr
          -38 -360 -102 callgsubr
          141 -38 callsubr
          -17 -165 rlineto
          -278 hlineto
          -10 -87 rlineto
          259 hlineto
          124 -2 callgsubr
          -371 -407 rmoveto
          33 320 rlineto
          -5 callgsubr
          -33 -320 rlineto
          endchar
        </CharString>
        <CharString name="g.alt">
          -32 -205 85 120 87 85 85 158 85 hstem
          177 hmoveto
          241 hlineto
          -13 -120 rlineto
          -261 hlineto
          10 100 -102 -56 -7 -62 -102 callgsubr
          223 -91 callgsubr
          17 158 -102 callsubr
          -222 hlineto
          9 85 rlineto
          192 -91 callgsubr
          14 138 -57 36 96 53 4 34 rlineto
          -319 hlineto
          -94 callsubr
          -22 -205 67 -41 -75 -41 -10 -90 rlineto
          135 359 rmoveto
          211 hlineto
          -16 -158 rlineto
          -211 hlineto
          endchar
        </CharString>
        <CharString name="germandbls">
          58 -6 callsubr
          200 8 callgsubr
          63 317 rmoveto
          90 hlineto
          -55 -517 -56 callgsubr
          86 810 rlineto
          235 hlineto
          -22 -203 rlineto
          -162 4 callsubr
          192 hlineto
          -24 -227 rlineto
          -192 4 callsubr
          176 -91 callgsubr
          25 244 -98 59 79 43 23 220 -102 callsubr
          -203 hlineto
          -94 callsubr
          -24 -226 6 callsubr
        </CharString>
        <CharString name="grave">
          -107 611 -3 callgsubr
          390 718 -95 callgsubr
        </CharString>
        <CharString name="grave.cap">
          -107 811 -3 callgsubr
          390 918 -95 callgsubr
        </CharString>
        <CharString name="greater">
          43 20 -27 callgsubr
          132 407 rmoveto
          387 -156 rlineto
          -2 vlineto
          -420 -156 -10 -94 521 200 11 102 -479 200 rlineto
          endchar
        </CharString>
        <CharString name="greaterequal">
          73 0 94 407 -20 hstem
          133 410 rmoveto
          354 -89 rlineto
          -2 vlineto
          -373 -89 -10 -91 514 130 10 102 -486 130 rlineto
          -52 -501 rmoveto
          500 hlineto
          9 94 rlineto
          -500 hlineto
          endchar
        </CharString>
        <CharString name="guillemotleft">
          73 -63 callsubr
          261 -77 callgsubr
          endchar
        </CharString>
        <CharString name="guillemotright">
          73 21 -27 callgsubr
          340 hmoveto
          -72 callgsubr
          -261 -107 rmoveto
          -72 callgsubr
          endchar
        </CharString>
        <CharString name="guilsinglleft">
          -177 -63 callsubr
          endchar
        </CharString>
        <CharString name="guilsinglright">
          -177 21 -27 callgsubr
          90 hmoveto
          -72 callgsubr
          endchar
        </CharString>
        <CharString name="h">
          -12 -28 callsubr
          225 -20 hstem
          177 hmoveto
          43 418 rlineto
          241 -59 callgsubr
          46 438 -26 callsubr
          28 266 6 callgsubr
        </CharString>
        <CharString name="hbar">
          -12 -28 callsubr
          80 74 -74 145 hstemhm
          hintmask 11100000
          177 hmoveto
          43 418 rlineto
          241 -59 callgsubr
          46 438 -26 callsubr
          12 121 rlineto
          150 hlineto
          8 74 -67 callsubr
          hintmask 11010000
          8 71 -56 callsubr
          hintmask 11100000
          -8 -71 rlineto
          -69 hlineto
          -8 -74 rlineto
          70 hlineto
          -61 -585 rlineto
          endchar
        </CharString>
        <CharString name="hungarumlaut">
          -107 590 128 hstem
          307 590 -100 callsubr
          -286 -128 -100 callgsubr
        </CharString>
        <CharString name="hyphen">
          -169 -17 callgsubr
          298 hlineto
          10 87 rlineto
          -298 hlineto
          endchar
        </CharString>
        <CharString name="i">
          -47 callsubr
          143 107 -94 callgsubr
          -37 1 callgsubr
          endchar
        </CharString>
        <CharString name="iacute">
          -47 callsubr
          238 -20 -94 callgsubr
          -55 590 -100 callgsubr
        </CharString>
        <CharString name="icircumflex">
          -47 callsubr
          248 -20 -94 callgsubr
          -28 728 -105 callgsubr
        </CharString>
        <CharString name="idieresis">
          -47 callsubr
          115 105 -94 callgsubr
          -148 595 -107 callsubr
        </CharString>
        <CharString name="igrave">
          -47 callsubr
          238 -20 -94 callgsubr
          1 718 -95 callgsubr
        </CharString>
        <CharString name="ij">
          -93 -200 87 134 -49 callsubr
          143 107 -94 callgsubr
          -37 1 callgsubr
          246 -107 -61 callsubr
        </CharString>
        <CharString name="infinity">
          283 103 90 235 90 hstem
          234 428 -4 callgsubr
          329 235 -4 callgsubr
          302 -23 rmoveto
          30 281 -102 callsubr
          -123 hlineto
          -94 callsubr
          -102 callsubr
          -123 hlineto
          -94 callsubr
          -30 -281 -102 callgsubr
          123 -91 callgsubr
          -102 callgsubr
          123 hlineto
          endchar
        </CharString>
        <CharString name="itilde">
          -47 callsubr
          254 -20 -94 callgsubr
          -61 667 -106 callgsubr
        </CharString>
        <CharString name="j">
          2 callgsubr
          143 107 hstem
          140 623 -61 callsubr
        </CharString>
        <CharString name="jcircumflex">
          2 callgsubr
          248 -20 hstemhm
          80 97 vstemhm
          177 -21 callgsubr
          -97 -613 hlineto
          hintmask 11110000
          -120 -87 101 hlineto
          116 67 rlineto
          -28 861 -105 callgsubr
        </CharString>
        <CharString name="k">
          -76 21 -80 callsubr
          endchar
        </CharString>
        <CharString name="kcommaaccent">
          -76 -314 -21 356 -80 callsubr
          -9 -586 -65 callsubr
        </CharString>
        <CharString name="kgreenlandic">
          -76 21 -21 500 -20 -94 callgsubr
          12 119 82 86 141 -205 4 callgsubr
          -195 274 217 226 rlineto
          -116 hlineto
          -232 -249 -58 callgsubr
          endchar
        </CharString>
        <CharString name="l">
          -290 0 87 643 -48 callgsubr
          endchar
        </CharString>
        <CharString name="l.alt">
          21 -21 730 -20 hstem
          177 hmoveto
          76 730 6 callgsubr
        </CharString>
        <CharString name="ldot">
          -207 0 87 152 120 371 -48 callgsubr
          202 172 -12 callgsubr
        </CharString>
        <CharString name="less">
          43 20 -27 callgsubr
          612 501 rmoveto
          -521 -200 -11 -102 479 -200 10 94 -386 156 rlineto
          2 vlineto
          419 156 rlineto
          endchar
        </CharString>
        <CharString name="lessequal">
          73 0 94 407 -20 hstem
          642 501 rmoveto
          -514 -130 -10 -102 486 -130 10 91 -355 89 rlineto
          2 vlineto
          374 89 rlineto
          -34 -316 -8 callgsubr
        </CharString>
        <CharString name="lslash">
          -290 0 87 643 -20 9 callsubr
          62 16 -25 -240 -102 callgsubr
          101 -88 callsubr
          26 247 102 27 8 74 -103 -27 34 322 -56 callsubr
          -36 -349 -62 -16 rlineto
          endchar
        </CharString>
        <CharString name="m">
          226 -28 callsubr
          hstem
          799 438 rmoveto
          -102 callsubr
          -101 hlineto
          -100 -54 -87 54 rlineto
          -101 -77 callsubr
          191 -59 callgsubr
          43 418 rlineto
          191 -59 callgsubr
          endchar
        </CharString>
        <CharString name="macron">
          -8 600 67 hstem
          207 600 rmoveto
          311 hlineto
          7 67 rlineto
          -311 hlineto
          endchar
        </CharString>
        <CharString name="madslug">
          289 -9 61 -61 218 302 219 -61 61 hstemhm
          80 183 370 183 hintmask 10011100
          650 51 rmoveto
          -2 2 rlineto
          0 -12 -1 -7 -61 -52 25 57 58 57 239 2 10 vhcurveto
          11 6 72 15 22 hhcurveto
          9 8 -3 -9 hvcurveto
          -13 -59 -225 -56 vvcurveto
          -32 17 -19 31 61 74 117 133 205 -164 165 -205 -75 -68 -23 -37 -58 vhcurveto
          2 -3 rlineto
          0 12 2 7 61 52 -25 -57 -58 -57 -239 -2 -10 vhcurveto
          -11 -6 -72 -15 -22 hhcurveto
          -9 -8 3 8 hvcurveto
          14 59 225 56 vvcurveto
          32 -17 19 -31 -61 -74 -117 -133 -205 164 -165 203 74 70 23 37 59 vhcurveto
          -174 183 rmoveto
          hintmask 01101100
          -15 -19 -58 -10 -20 hhcurveto
          -10 -6 3 7 19 53 229 4 20 hvcurveto
          15 19 58 9 20 hhcurveto
          10 6 -2 -7 -19 -53 -229 -4 -20 hvcurveto
          endchar
        </CharString>
        <CharString name="minus">
          -7 203 94 hstem
          581 297 -54 callgsubr
          endchar
        </CharString>
        <CharString name="mu">
          5 -137 -21 158 87 413 -20 hstem
          448 hmoveto
          160 -92 callgsubr
          -87 hlineto
          44 413 -56 callsubr
          -44 -413 -53 callsubr
          44 413 -56 callsubr
          -69 -658 -71 callgsubr
          16 158 rlineto
          160 -38 callsubr
          rlineto
          endchar
        </CharString>
        <CharString name="multiply">
          3 26 -21 490 -20 hstem
          178 495 rmoveto
          -73 -66 160 -179 -198 -179 59 -66 198 179 160 -179 73 66 -160 179 198 179 -59 66 -198 -179 rlineto
          endchar
        </CharString>
        <CharString name="n">
          -22 -28 callsubr
          -90 callsubr
          endchar
        </CharString>
        <CharString name="nacute">
          -22 -28 callsubr
          213 -20 -90 callsubr
          -242 590 -100 callgsubr
        </CharString>
        <CharString name="nine">
          28 -5 -34 callgsubr
          235 90 hstem
          453 85 rmoveto
          -255 hlineto
          10 90 -59 callsubr
          -12 -113 -102 callgsubr
          223 -91 callgsubr
          61 576 -102 callsubr
          -223 hlineto
          -94 callsubr
          -30 -281 -102 callgsubr
          168 -38 callsubr
          rlineto
          5 49 rmoveto
          -255 hlineto
          25 235 rlineto
          255 hlineto
          endchar
        </CharString>
        <CharString name="notequal">
          73 -11 194 -94 94 134 94 -94 194 hstemhm
          hintmask 10100000
          633 411 rmoveto
          -79 hlineto
          hintmask 10010000
          89 100 rlineto
          -90 11 callsubr
          -89 -100 rlineto
          -331 hlineto
          -31 callgsubr
          257 hlineto
          -119 -134 rlineto
          -152 hlineto
          hintmask 01100000
          -31 callgsubr
          78 11 callsubr
          -89 -100 rlineto
          90 hlineto
          hintmask 01100000
          89 100 rlineto
          332 hlineto
          10 94 rlineto
          -258 hlineto
          119 134 rlineto
          153 hlineto
          endchar
        </CharString>
        <CharString name="ntilde">
          -22 -28 callsubr
          229 -20 -90 callsubr
          -226 667 -106 callgsubr
        </CharString>
        <CharString name="numbersign">
          149 1 -21 192 76 212 76 184 -20 hstem
          423 -20 rmoveto
          83 hlineto
          38 192 rlineto
          170 hlineto
          8 76 12 callsubr
          41 212 rlineto
          144 hlineto
          8 76 rlineto
          -137 -4 callsubr
          -176 -4 callsubr
          -157 hlineto
          -8 -76 -6 callgsubr
          -41 -212 rlineto
          -131 hlineto
          -8 -76 rlineto
          124 hlineto
          -38 -192 rlineto
          83 hlineto
          38 192 rlineto
          176 hlineto
          -120 288 rmoveto
          176 hlineto
          -41 -212 rlineto
          -176 hlineto
          endchar
        </CharString>
        <CharString name="o">
          -22 -74 callsubr
          -104 callsubr
          endchar
        </CharString>
        <CharString name="oacute">
          -78 callgsubr
          95 508 -100 callgsubr
        </CharString>
        <CharString name="ocircumflex">
          -22 -74 callsubr
          223 -20 -104 callsubr
          131 646 -105 callgsubr
        </CharString>
        <CharString name="odieresis">
          -22 -74 callsubr
          90 105 -104 callsubr
          8 513 -107 callsubr
        </CharString>
        <CharString name="oe">
          276 0 87 -71 -21 221 87 115 87 hstemhm
          hintmask 10110000
          812 -97 callsubr
          -73 -39 -62 39 rlineto
          -193 hlineto
          -94 callsubr
          -40 -376 rlineto
          hintmask 01110000
          -102 callgsubr
          193 hlineto
          76 41 rlineto
          hintmask 10110000
          60 -36 rlineto
          279 hlineto
          -583 418 rmoveto
          231 -82 callsubr
          -231 hlineto
          363 -22 callgsubr
        </CharString>
        <CharString name="ogonek">
          -87 -177 -21 198 -20 hstem
          247 hmoveto
          -67 hlineto
          -14 -131 -102 callgsubr
          44 hlineto
          7 67 rlineto
          -93 hlineto
          endchar
        </CharString>
        <CharString name="ograve">
          -78 callgsubr
          182 636 -95 callgsubr
        </CharString>
        <CharString name="one">
          -37 0 90 610 -20 hstem
          141 490 rmoveto
          180 98 -52 -498 rlineto
          -170 4 callsubr
          440 -88 callgsubr
          -170 hlineto
          64 610 rlineto
          -80 hlineto
          -201 -109 rlineto
          endchar
        </CharString>
        <CharString name="ordfeminine">
          -12 0 87 103 -67 callgsubr
          hstem
          90 hmoveto
          415 -92 callgsubr
          -415 hlineto
          152 526 -87 callsubr
          362 -26 callgsubr
          -26 hlineto
          -75 -41 -67 41 rlineto
          -131 hlineto
          -94 callsubr
          -39 -376 108 -67 rlineto
          131 hlineto
          76 41 66 -41 rlineto
          26 hlineto
          endchar
        </CharString>
        <CharString name="ordmasculine">
          -2 0 87 108 -67 callgsubr
          hstem
          542 262 -106 callsubr
          -126 -282 rmoveto
          425 -92 callgsubr
          -425 hlineto
          endchar
        </CharString>
        <CharString name="oslash">
          -22 -74 callsubr
          hstem
          511 62 -103 callgsubr
          191 hlineto
          -220 -278 rlineto
          34 -58 rmoveto
          220 278 -29 -278 rlineto
          endchar
        </CharString>
        <CharString name="otilde">
          -22 -74 callsubr
          229 -20 -104 callsubr
          98 585 -106 callgsubr
        </CharString>
        <CharString name="p">
          -36 callsubr
          hstem
          398 -5 rmoveto
          -78 callsubr
          40 376 -26 callsubr
          -19 41 rlineto
          -73 hlineto
          -75 -705 -71 callgsubr
          25 236 67 -41 rlineto
          -27 423 -48 callsubr
        </CharString>
        <CharString name="paragraph">
          78 -6 callsubr
          813 87 hstem
          476 -200 rmoveto
          97 hlineto
          95 900 rlineto
          -419 hlineto
          -94 callsubr
          -33 -317 -102 callgsubr
          128 hlineto
          -48 -449 -71 callgsubr
          86 813 -71 callgsubr
          endchar
        </CharString>
        <CharString name="parenleft">
          -42 callsubr
          -97 hlineto
          -94 callsubr
          -83 -796 -20 callsubr
        </CharString>
        <CharString name="parenright">
          -42 callgsubr
          97 hlineto
          124 67 83 796 -102 callsubr
          -97 hlineto
          -7 -70 rlineto
          133 hlineto
          endchar
        </CharString>
        <CharString name="partialdiff">
          28 -5 90 255 90 185 90 hstem
          509 615 rmoveto
          -24 -226 -46 callsubr
          61 576 0 callsubr
          183 -530 -12 callsubr
        </CharString>
        <CharString name="percent">
          384 -10 2 callsubr
          14 -75 callgsubr
          564 272 -13 callsubr
          -276 -434 -91 callsubr
          endchar
        </CharString>
        <CharString name="period">
          -257 0 -23 callgsubr
          endchar
        </CharString>
        <CharString name="periodcentered">
          -257 284 150 hstem
          129 284 -57 callsubr
          endchar
        </CharString>
        <CharString name="perthousand">
          789 -10 2 callsubr
          14 2 callsubr
          hstem
          781 710 -13 callsubr
          -402 -286 -90 callgsubr
          378 -162 -91 callsubr
          183 14 -91 callsubr
          endchar
        </CharString>
        <CharString name="plus">
          -7 21 -21 203 94 203 -20 hstem
          81 297 rmoveto
          -31 callgsubr
          203 hlineto
          -21 -203 rlineto
          94 hlineto
          21 203 0 callgsubr
          21 203 rlineto
          -94 hlineto
          -21 -203 rlineto
          endchar
        </CharString>
        <CharString name="plusminus">
          73 0 94 46 227 -94 94 -94 227 hstemhm
          hintmask 10100000
          128 367 rmoveto
          -31 callgsubr
          203 hlineto
          hintmask 11000000
          -15 callgsubr
          94 11 callsubr
          14 133 0 callgsubr
          hintmask 10010000
          14 133 rlineto
          -94 11 callsubr
          -15 callgsubr
          268 -273 -8 callgsubr
        </CharString>
        <CharString name="q">
          -36 callsubr
          hstem
          346 -5 rmoveto
          75 41 -25 -236 -71 callgsubr
          75 705 rlineto
          -26 -32 callgsubr
          -66 41 rlineto
          -151 -98 callgsubr
          231 87 -10 callgsubr
        </CharString>
        <CharString name="question">
          -27 0 150 241 90 159 90 hstem
          338 391 rmoveto
          77 -91 callgsubr
          21 205 -102 callsubr
          -168 -13 callgsubr
          200 hlineto
          -17 -159 rlineto
          -76 hlineto
          -94 callsubr
          -5 -146 -15 callsubr
          -143 -268 rmoveto
          -84 callgsubr
          endchar
        </CharString>
        <CharString name="questiondown">
          -27 -230 90 159 90 241 150 hstem
          294 109 rmoveto
          -77 hlineto
          -94 callsubr
          -22 -205 -102 callgsubr
          168 -19 callgsubr
          -100 4 callsubr
          -200 hlineto
          16 159 rlineto
          76 hlineto
          124 67 5 146 rlineto
          -80 hlineto
          143 268 rmoveto
          -150 hlineto
          -16 -150 -6 callgsubr
          endchar
        </CharString>
        <CharString name="quotedbl">
          -177 -43 callgsubr
          170 -292 -36 callgsubr
          endchar
        </CharString>
        <CharString name="quotedblbase">
          -17 -179 -39 callgsubr
          78 -200 -61 callgsubr
        </CharString>
        <CharString name="quotedblleft">
          -37 -30 callsubr
          556 730 -50 callsubr
          -203 350 -50 callsubr
          endchar
        </CharString>
        <CharString name="quotedblright">
          -37 -30 callsubr
          129 380 -61 callgsubr
        </CharString>
        <CharString name="quoteleft">
          -277 -30 callsubr
          316 730 -50 callsubr
          endchar
        </CharString>
        <CharString name="quoteright">
          -277 -30 callsubr
          129 380 -92 callsubr
          endchar
        </CharString>
        <CharString name="quotesinglbase">
          -55 callsubr
        </CharString>
        <CharString name="quotesingle">
          -357 -43 callgsubr
          endchar
        </CharString>
        <CharString name="r">
          -218 21 -21 413 87 hstem
          402 -21 callsubr
          9 87 rlineto
          -111 hlineto
          -75 -41 -20 41 rlineto
          -73 -86 callsubr
          43 -10 callsubr
          endchar
        </CharString>
        <CharString name="rcaron">
          -218 21 -21 413 87 -33 callsubr
          402 -21 callsubr
          9 87 rlineto
          -111 hlineto
          -75 -41 -20 41 rlineto
          -73 -86 callsubr
          43 -10 callsubr
          91 177 -95 callsubr
        </CharString>
        <CharString name="rcommaaccent">
          -218 -314 -21 280 55 413 87 hstem
          402 -21 callsubr
          9 87 rlineto
          -111 hlineto
          -75 -41 -20 41 rlineto
          -73 -86 callsubr
          43 -10 callsubr
          -107 -748 -65 callsubr
        </CharString>
        <CharString name="registered">
          233 -5 70 238 63 133 63 73 70 hstem
          -70 callsubr
          292 238 rmoveto
          77 -165 rlineto
          77 hlineto
          -81 168 72 40 18 174 -69 42 rlineto
          -241 hlineto
          -45 -424 rlineto
          69 hlineto
          17 165 rlineto
          21 196 rmoveto
          177 hlineto
          -15 callgsubr
          -177 hlineto
          endchar
        </CharString>
        <CharString name="ring">
          -78 570 65 133 65 hstem
          471 617 -89 callsubr
        </CharString>
        <CharString name="ring.cap">
          -78 770 65 133 65 hstem
          471 817 -89 callsubr
        </CharString>
        <CharString name="s">
          -71 -19 callsubr
          hstem
          480 230 rmoveto
          -74 callgsubr
          12 116 rlineto
          269 -92 callgsubr
          -250 hlineto
          -94 callsubr
          -16 -156 -102 callgsubr
          163 11 callgsubr
          -279 -7 callgsubr
          260 10 callgsubr
          endchar
        </CharString>
        <CharString name="scaron">
          -71 -19 callsubr
          -33 callsubr
          480 230 rmoveto
          -74 callgsubr
          12 116 rlineto
          269 -92 callgsubr
          -250 hlineto
          -94 callsubr
          -16 -156 -102 callgsubr
          163 11 callgsubr
          -279 -7 callgsubr
          260 10 callgsubr
          -78 523 -95 callsubr
        </CharString>
        <CharString name="section">
          46 -200 90 183 90 179 90 183 90 hstem
          462 163 rmoveto
          -227 hlineto
          18 179 rlineto
          227 hlineto
          -327 -6 rmoveto
          -21 -196 -102 callgsubr
          211 hlineto
          -19 -183 rlineto
          -255 hlineto
          8 80 -59 callsubr
          -10 -103 108 -67 rlineto
          223 hlineto
          124 67 21 200 -82 50 rlineto
          2 vlineto
          92 50 21 196 -102 callsubr
          -211 hlineto
          19 183 rlineto
          245 hlineto
          -8 -80 -56 callgsubr
          11 103 -102 callsubr
          -213 hlineto
          -94 callsubr
          -21 -200 81 -50 rlineto
          -2 vlineto
          endchar
        </CharString>
        <CharString name="semicolon">
          -257 -6 callsubr
          350 200 0 -37 callgsubr
          -74 -700 -92 callsubr
          endchar
        </CharString>
        <CharString name="seven">
          8 21 -21 520 180 -90 90 hstemhm
          hintmask 11000000
          273 hmoveto
          359 640 6 60 rlineto
          -505 hlineto
          -19 -180 rlineto
          100 11 callsubr
          10 90 rlineto
          286 hlineto
          -1 -2 -342 -608 rlineto
          endchar
        </CharString>
        <CharString name="six">
          28 -5 90 235 90 115 180 -90 90 hstemhm
          hintmask 11010000
          254 615 rmoveto
          255 hlineto
          hintmask 11100000
          -9 -90 -56 callgsubr
          12 113 -102 callsubr
          -223 -96 callsubr
          223 -91 callgsubr
          30 281 -102 callsubr
          -168 -32 callgsubr
          rlineto
          hintmask 11010000
          -5 -49 rmoveto
          255 hlineto
          -25 -235 rlineto
          -255 hlineto
          endchar
        </CharString>
        <CharString name="slash">
          8 callsubr
          27 -20 rmoveto
          90 hlineto
          314 740 6 callsubr
        </CharString>
        <CharString name="space">
          -347 endchar
        </CharString>
        <CharString name="st">
          302 -19 callsubr
          140 -20 5 callgsubr
          -21 callsubr
          455 hlineto
          -36 -346 -102 callgsubr
          101 -88 callsubr
          34 326 -41 callsubr
          140 -103 -56 -9 -84 rlineto
          -436 hlineto
          -94 callsubr
          -16 -156 -102 callgsubr
          163 11 callgsubr
          -279 -7 callgsubr
          260 -91 callgsubr
          17 163 -74 callgsubr
          endchar
        </CharString>
        <CharString name="sterling">
          35 0 90 201 74 250 90 hstem
          394 365 rmoveto
          -139 hlineto
          26 250 rlineto
          225 4 callsubr
          100 hlineto
          12 113 -102 callsubr
          -193 hlineto
          -94 callsubr
          -29 -273 9 callgsubr
          -30 -291 rlineto
          359 -91 callgsubr
          11 113 rlineto
          -100 hlineto
          -9 -90 -24 callsubr
          21 201 rlineto
          139 hlineto
          endchar
        </CharString>
        <CharString name="t">
          -198 -27 callsubr
          140 -20 hstem
          83 -21 callsubr
          92 hlineto
          -36 -346 -102 callgsubr
          101 -88 callsubr
          34 326 -41 callsubr
          140 -103 -56 -9 -84 rlineto
          -92 hlineto
          endchar
        </CharString>
        <CharString name="thorn">
          -36 callsubr
          225 -20 hstem
          156 730 rmoveto
          -98 -930 -71 callgsubr
          25 236 67 -41 rlineto
          151 -91 callgsubr
          40 376 -26 callsubr
          28 266 rlineto
          -33 -312 -48 callsubr
        </CharString>
        <CharString name="three">
          44 -25 callsubr
          444 -5 rmoveto
          -78 callsubr
          26 249 -82 50 1 2 92 50 24 225 -102 callsubr
          -239 -1 callsubr
          9 90 rlineto
          271 hlineto
          -22 -208 rlineto
          -205 4 callsubr
          205 hlineto
          -25 -232 rlineto
          -271 hlineto
          10 90 -59 callsubr
          -12 -113 -102 callgsubr
          endchar
        </CharString>
        <CharString name="tilde">
          -101 606 -21 149 -20 hstem
          240 667 -106 callgsubr
        </CharString>
        <CharString name="tilde.cap">
          -101 806 -21 149 -20 hstem
          240 867 -106 callgsubr
        </CharString>
        <CharString name="trademark">
          238 361 -21 297 63 hstem
          724 340 rmoveto
          66 hlineto
          38 360 rlineto
          -85 hlineto
          -123 -265 -58 callgsubr
          -68 265 rlineto
          -85 hlineto
          -38 -360 rlineto
          66 hlineto
          26 243 14 callgsubr
          56 -243 rlineto
          61 hlineto
          110 243 14 callgsubr
          -449 54 rmoveto
          96 hlineto
          7 63 rlineto
          -261 hlineto
          -7 -63 -71 callgsubr
          -31 -297 rlineto
          68 hlineto
          endchar
        </CharString>
        <CharString name="two">
          23 0 90 201 90 229 90 hstem
          199 90 rmoveto
          21 201 rlineto
          234 -91 callgsubr
          29 275 -102 callsubr
          -218 -13 callgsubr
          250 hlineto
          -24 -229 rlineto
          -234 hlineto
          -94 callsubr
          -33 -314 rlineto
          450 -88 callgsubr
          endchar
        </CharString>
        <CharString name="u">
          -22 -5 87 418 -20 -99 callgsubr
          endchar
        </CharString>
        <CharString name="uacute">
          -73 callgsubr
          165 90 -100 callgsubr
        </CharString>
        <CharString name="ucircumflex">
          -22 -5 87 418 -20 248 -20 -99 callgsubr
          182 228 -105 callgsubr
        </CharString>
        <CharString name="udieresis">
          -22 -5 87 418 -20 115 105 -99 callgsubr
          60 95 -107 callsubr
        </CharString>
        <CharString name="ugrave">
          -73 callgsubr
          218 218 -95 callgsubr
        </CharString>
        <CharString name="underscore">
          5 -200 84 hstem
          619 -116 rmoveto
          -651 hlineto
          -9 -84 rlineto
          651 hlineto
          endchar
        </CharString>
        <CharString name="uni00A0">
          -347 endchar
        </CharString>
        <CharString name="v">
          -80 1 callsubr
          167 -21 callgsubr
          -95 hlineto
          133 -500 rlineto
          117 hlineto
          237 500 rlineto
          -95 hlineto
          -191 -408 -58 callgsubr
          endchar
        </CharString>
        <CharString name="w">
          150 1 callsubr
          487 hmoveto
          115 hlineto
          177 500 7 callsubr
          -136 -391 -58 callgsubr
          -69 391 rlineto
          -103 hlineto
          -151 -391 -58 callgsubr
          -54 391 7 callsubr
          73 -500 rlineto
          115 hlineto
          147 382 14 callgsubr
          endchar
        </CharString>
        <CharString name="x">
          -107 1 callsubr
          20 hmoveto
          105 hlineto
          144 183 106 -183 rlineto
          105 hlineto
          -154 255 200 245 rlineto
          -108 hlineto
          -134 -172 -98 172 rlineto
          -108 hlineto
          147 -245 rlineto
          endchar
        </CharString>
        <CharString name="y">
          -88 -179 -52 callgsubr
          -86 callgsubr
          endchar
        </CharString>
        <CharString name="yacute">
          -88 -179 -52 callgsubr
          238 -20 -86 callgsubr
          42 567 -100 callgsubr
        </CharString>
        <CharString name="ydieresis">
          -88 -179 -52 callgsubr
          115 105 -86 callgsubr
          -55 572 -107 callsubr
        </CharString>
        <CharString name="yen">
          44 0 222 -74 74 81 74 323 -20 hstemhm
          hintmask 10110000
          108 303 rmoveto
          198 hlineto
          -8 -81 rlineto
          -198 hlineto
          hintmask 01110000
          -8 -74 rlineto
          198 hlineto
          hintmask 10110000
          -15 -148 -56 callgsubr
          hintmask 01110000
          15 148 rlineto
          198 12 callgsubr
          -198 hlineto
          8 81 rlineto
          198 12 callgsubr
          -157 hlineto
          229 323 -79 callgsubr
          160 -323 rlineto
          -157 hlineto
          endchar
        </CharString>
        <CharString name="z">
          -141 -27 callsubr
          hstem
          46 66 rmoveto
          -6 -66 rlineto
          376 -92 callgsubr
          -252 2 hlineto
          288 345 7 66 rlineto
          -366 -7 callgsubr
          242 -2 hlineto
          endchar
        </CharString>
        <CharString name="zcaron">
          -141 -27 callsubr
          -33 callsubr
          46 66 rmoveto
          -6 -66 rlineto
          376 -92 callgsubr
          -252 2 hlineto
          288 345 7 66 rlineto
          -366 -7 callgsubr
          242 -2 hlineto
          7 179 -95 callsubr
        </CharString>
        <CharString name="zero">
          58 -53 callgsubr
          hstem
          581 -25 callgsubr
          -253 -96 callsubr
          253 hlineto
          -204 620 rmoveto
          285 -39 callsubr
          -285 hlineto
          endchar
        </CharString>
      <CharString index="0">
        5 callgsubr
        418 -87 callsubr
        363 -26 callgsubr
        -26 -32 callgsubr
        -66 41 rlineto
        -131 -98 callgsubr
        131 -70 callgsubr
        return
      </CharString>
      <CharString index="1">
        rmoveto
        133 -82 100 55 10 94 rlineto
        -68 hlineto
        -9 -82 -58 callgsubr
        -133 82 -100 -55 -31 callgsubr
        68 hlineto
        9 82 rlineto
        endchar
      </CharString>
      <CharString index="2">
        rmoveto
        -114 13 callgsubr
        75 hlineto
        88 80 73 -80 rlineto
        75 hlineto
        -87 138 rlineto
        endchar
      </CharString>
      <CharString index="3">
        hstem
        467 -14 callgsubr
        -124 hlineto
        -323 -700 -93 callgsubr
        -250 601 -76 callgsubr
        return
      </CharString>
      <CharString index="4">
        rmoveto
        40 376 -102 callsubr
        -193 -98 callgsubr
        193 hlineto
        -168 -26 callgsubr
        return
      </CharString>
      <CharString index="5">
        109 -67 rlineto
        return
      </CharString>
      <CharString index="6">
        rmoveto
        105 hlineto
        11 105 rlineto
        -105 hlineto
        return
      </CharString>
      <CharString index="7">
        -100 callsubr
        endchar
      </CharString>
      <CharString index="8">
        hstem
        86 62 rmoveto
        -102 callgsubr
        141 -38 callsubr
        20 -41 rlineto
        73 hlineto
        53 505 -56 callsubr
        -44 -418 -53 callsubr
        44 418 -56 callsubr
        return
      </CharString>
      <CharString index="9">
        hlineto
        -98 callsubr
        return
      </CharString>
      <CharString index="10">
        61 576 -102 callsubr
        -293 -96 callsubr
        return
      </CharString>
      <CharString index="11">
        315 rmoveto
        239 -88 callgsubr
        -239 hlineto
        22 205 rlineto
        299 -88 callgsubr
        return
      </CharString>
      <CharString index="12">
        rmoveto
        -130 hlineto
        131 -128 -51 callgsubr
      </CharString>
      <CharString index="13">
        hstem
        229 -93 callsubr
        return
      </CharString>
      <CharString index="14">
        rlineto
        98 hlineto
        76 166 rlineto
        310 hlineto
        42 -166 rlineto
        98 hlineto
        return
      </CharString>
      <CharString index="15">
        hlineto
        9 87 rlineto
        return
      </CharString>
      <CharString index="16">
        hlineto
        -78 callsubr
        return
      </CharString>
      <CharString index="17">
        rmoveto
        23 219 -102 callsubr
        -113 hlineto
        -94 callsubr
        -23 -24 callgsubr
        -109 272 rmoveto
        5 callsubr
        -20 -191 12 callsubr
        return
      </CharString>
      <CharString index="18">
        hstem
        255 hmoveto
        100 hlineto
        32 308 277 392 -79 callgsubr
        194 -391 rlineto
        return
      </CharString>
      <CharString index="19">
        hlineto
        9 90 rlineto
        return
      </CharString>
      <CharString index="20">
        -58 callsubr
        -16 callsubr
        484 -97 callsubr
        -94 callsubr
        -39 -371 -102 callgsubr
        279 hlineto
        -255 418 -83 callsubr
        return
      </CharString>
      <CharString index="21">
        hstem
        104 -200 rmoveto
        95 hlineto
        352 700 -56 callsubr
        -178 -356 -58 callgsubr
        -105 356 -56 callsubr
        143 -477 rlineto
        return
      </CharString>
      <CharString index="22">
        -32 -74 callsubr
        213 -20 -107 callgsubr
        return
      </CharString>
      <CharString index="23">
        -43 callsubr
        15 -72 callsubr
        return
      </CharString>
      <CharString index="24">
        hlineto
        -43 -413 -71 callgsubr
        43 -10 callsubr
        return
      </CharString>
      <CharString index="25">
        -97 -86 callsubr
        return
      </CharString>
      <CharString index="26">
        -64 callsubr
        228 -20 -104 callgsubr
        return
      </CharString>
      <CharString index="27">
        -68 -60 callsubr
        208 -20 -101 callsubr
        return
      </CharString>
      <CharString index="28">
        -44 callgsubr
        -204 -298 -58 callgsubr
        -141 298 -44 callgsubr
        return
      </CharString>
      <CharString index="29">
        -22 -74 callsubr
        213 -20 -104 callsubr
        return
      </CharString>
      <CharString index="30">
        107 rmoveto
        -168 144 rlineto
        1 vlineto
        198 143 11 107 -271 -200 -10 -102 229 -200 rlineto
        return
      </CharString>
      <CharString index="31">
        rmoveto
        2 hlineto
        85 -345 rlineto
        -246 hlineto
        return
      </CharString>
      <CharString index="32">
        2 callsubr
        hstem
        469 424 -90 callgsubr
        return
      </CharString>
      <CharString index="33">
        -109 67 12 callsubr
        return
      </CharString>
      <CharString index="34">
        -22 -5 87 418 -20 238 -20 -99 callgsubr
        return
      </CharString>
      <CharString index="35">
        271 200 10 102 -229 200 -11 -107 168 -143 rlineto
        -1 vlineto
        -198 -144 rlineto
        return
      </CharString>
      <CharString index="36">
        rlineto
        97 hlineto
        return
      </CharString>
      <CharString index="37">
        -38 callsubr
        67 -41 rlineto
        26 hlineto
        return
      </CharString>
      <CharString index="38">
        rlineto
        399 -88 callgsubr
        -299 hlineto
        return
      </CharString>
      <CharString index="39">
        90 hmoveto
        100 -68 callsubr
        return
      </CharString>
      <CharString index="40">
        87 336 87 return
      </CharString>
      <CharString index="41">
        -20 hstem
        245 529 rmoveto
        2 hlineto
        307 -529 rlineto
        91 -68 callsubr
        -56 -529 -58 callgsubr
        -306 529 rlineto
        -91 -45 callsubr
        return
      </CharString>
      <CharString index="42">
        rmoveto
        -97 hlineto
        -64 -613 rlineto
        -119 hlineto
        -10 -49 callgsubr
      </CharString>
      <CharString index="43">
        hstem
        134 610 3 callsubr
        -1 -2 -402 -548 -6 -60 rlineto
        475 -88 callgsubr
        -345 2 hlineto
        403 548 6 60 rlineto
        -455 hlineto
        return
      </CharString>
      <CharString index="44">
        21 -52 callgsubr
        return
      </CharString>
      <CharString index="45">
        -76 callsubr
        -92 hlineto
        return
      </CharString>
      <CharString index="46">
        -92 callsubr
        203 -350 -92 callsubr
        endchar
      </CharString>
      <CharString index="47">
        -20 hstem
        -68 callgsubr
        return
      </CharString>
      <CharString index="48">
        hlineto
        -43 -418 -71 callgsubr
        return
      </CharString>
      <CharString index="49">
        rlineto
        -2 hlineto
        return
      </CharString>
      <CharString index="50">
        rlineto
        -325 hlineto
        return
      </CharString>
      <CharString index="51">
        rlineto
        100 hlineto
        return
      </CharString>
      <CharString index="52">
        15 140 -59 callsubr
        -17 -163 -102 callgsubr
        193 hlineto
        123 -2 callgsubr
        -100 hlineto
        endchar
      </CharString>
      <CharString index="53">
        rmoveto
        -500 hlineto
        -10 -28 callgsubr
        return
      </CharString>
      <CharString index="54">
        -5 90 530 90 return
      </CharString>
      <CharString index="55">
        -21 700 -20 return
      </CharString>
      <CharString index="56">
        -15 callsubr
        endchar
      </CharString>
      <CharString index="57">
        -69 callsubr
        143 rlineto
        return
      </CharString>
      <CharString index="58">
        -87 -56 callgsubr
        124 67 rlineto
        endchar
      </CharString>
      <CharString index="59">
        -20 hstem
        196 hmoveto
        -9 callsubr
        -97 hlineto
        -69 -663 rlineto
        return
      </CharString>
      <CharString index="60">
        -244 -200 70 790 70 hstem
        return
      </CharString>
      <CharString index="61">
        -18 callsubr
        -41 callgsubr
        rlineto
        hintmask 10110000
        return
      </CharString>
      <CharString index="62">
        hlineto
        -94 callsubr
        -38 -366 -102 callgsubr
        259 -29 callgsubr
        endchar
      </CharString>
      <CharString index="63">
        rlineto
        -112 hlineto
        return
      </CharString>
      <CharString index="64">
        459 -21 292 -20 hstem
        136 438 -36 callgsubr
        return
      </CharString>
      <CharString index="65">
        -47 callgsubr
        179 -130 rmoveto
        -133 hlineto
        -8 -70 rlineto
        return
      </CharString>
      <CharString index="66">
        -5 -50 rlineto
        70 hlineto
        91 50 8 74 -62 38 return
      </CharString>
      <CharString index="67">
        3 callsubr
        -55 -520 -57 callgsubr
        return
      </CharString>
      <CharString index="68">
        -21 350 -20 hstem
        return
      </CharString>
      <CharString index="69">
        -20 hstem
        90 hmoveto
        359 -88 callgsubr
        -259 hlineto
        64 610 -59 callsubr
        return
      </CharString>
      <CharString index="70">
        150 hstem
        136 350 -57 callsubr
        return
      </CharString>
      <CharString index="71">
        rmoveto
        70 hlineto
        50 292 rlineto
        -110 hlineto
        return
      </CharString>
      <CharString index="72">
        -63 callgsubr
        hstem
        return
      </CharString>
      <CharString index="73">
        90 205 90 return
      </CharString>
      <CharString index="74">
        rlineto
        -120 hlineto
        return
      </CharString>
      <CharString index="75">
        hlineto
        -76 -41 return
      </CharString>
      <CharString index="76">
        -10 -94 rlineto
        return
      </CharString>
      <CharString index="77">
        -29 callgsubr
        34 326 rlineto
        278 -92 callgsubr
        return
      </CharString>
      <CharString index="78">
        -92 callgsubr
        -278 hlineto
        return
      </CharString>
      <CharString index="79">
        -94 rlineto
        500 hlineto
        return
      </CharString>
      <CharString index="80">
        -21 502 -20 hstem
        return
      </CharString>
      <CharString index="81">
        423 rmoveto
        return
      </CharString>
      <CharString index="82">
        62 rmoveto
        61 576 -102 callsubr
        return
      </CharString>
      <CharString index="83">
        -219 -102 callgsubr
        113 hlineto
        return
      </CharString>
      <CharString index="84">
        150 -51 callsubr
        return
      </CharString>
      <CharString index="85">
        336 -11 callgsubr
      </CharString>
      <CharString index="86">
        500 rmoveto
        return
      </CharString>
      <CharString index="87">
        -209 -200 70 360 70 360 70 hstem
        cntrmask 11100000
        return
      </CharString>
      <CharString index="88">
        -91 callgsubr
        12 113 rlineto
        return
      </CharString>
      <CharString index="89">
        -198 10 -9 -85 200 10 return
      </CharString>
      <CharString index="90">
        218 87 hstem
        92 218 rmoveto
        return
      </CharString>
      <CharString index="91">
        98 -5 100 605 -20 return
      </CharString>
      <CharString index="92">
        -14 -133 rlineto
        return
      </CharString>
      <CharString index="93">
        700 rmoveto
        return
      </CharString>
      <CharString index="94">
        -1 callsubr
        10 90 rlineto
        return
      </CharString>
      <CharString index="95">
        rmoveto
        120 hlineto
        12 120 -35 callsubr
      </CharString>
      <CharString index="96">
        -83 callsubr
        endchar
      </CharString>
      <CharString index="97">
        rmoveto
        -241 hlineto
        35 336 rlineto
        241 hlineto
        endchar
      </CharString>
      <CharString index="98">
        11 102 rlineto
        -87 11 callsubr
        -9 -82 rlineto
        -95 hlineto
        return
      </CharString>
      <CharString index="99">
        rmoveto
        -500 hlineto
        -9 -28 callgsubr
        endchar
      </CharString>
      <CharString index="100">
        hlineto
        -9 -87 rlineto
        return
      </CharString>
      <CharString index="101">
        rlineto
        -43 callsubr
        return
      </CharString>
      <CharString index="102">
        231 hlineto
        return
      </CharString>
      <CharString index="103">
        rmoveto
        205 hlineto
        -24 -235 rlineto
        -205 hlineto
        return
      </CharString>
      <CharString index="104">
        -21 128 -20 hstem
        return
      </CharString>
      <CharString index="105">
        67 67 638 rlineto
        return
      </CharString>
      <CharString index="106">
        87 143 87 hstem
        272 -21 callsubr
        return
      </CharString>
      <CharString index="107">
        rlineto
        203 hlineto
        10 94 rlineto
        -203 hlineto
        return
      </CharString>
      <CharString index="108">
        623 -40 callsubr
        return
      </CharString>
      <CharString index="109">
        -200 87 613 -20 return
      </CharString>
      <CharString index="110">
        41 rlineto
        -73 hlineto
        return
      </CharString>
      <CharString index="111">
        rlineto
        119 hlineto
        return
      </CharString>
      <CharString index="112">
        hstem
        220 return
      </CharString>
      <CharString index="113">
        -56 callsubr
        -76 -730 rlineto
        endchar
      </CharString>
      <CharString index="114">
        rlineto
        -75 hlineto
        return
      </CharString>
      <CharString index="115">
        90 227 90 203 90 hstem
        return
      </CharString>
      <CharString index="116">
        rlineto
        -77 hlineto
        -8 -74 rlineto
        77 hlineto
        return
      </CharString>
      <CharString index="117">
        -91 callgsubr
        rlineto
        return
      </CharString>
      <CharString index="118">
        hlineto
        -13 -123 rlineto
        return
      </CharString>
      <CharString index="119">
        hlineto
        8 74 rlineto
        return
      </CharString>
      <CharString index="120">
        -138 rlineto
        return
      </CharString>
      <CharString index="121">
        rlineto
        2 hlineto
        return
      </CharString>
</ttFont>
